<svg width="45" height="31" viewBox="0 0 45 31" fill="none" xmlns="http://www.w3.org/2000/svg">
<g id="logo/cosmology">
<path id="Fill 1" fill-rule="evenodd" clip-rule="evenodd" d="M38.0952 0C37.447 0.00387403 36.7974 0.109529 36.167 0.319079C36.1604 0.321193 36.1543 0.322953 36.1478 0.325419L30.2978 2.28814C26.2627 -0.0757198 21.4234 -0.584979 16.9781 0.891027C16.9621 0.89631 16.9455 0.902297 16.9295 0.907228C10.8069 2.96187 6.5158 8.58063 6.25145 14.889C6.23888 15.1877 6.52971 15.4064 6.81322 15.3112L10.0466 14.2264C10.1971 14.1759 10.3065 14.0451 10.3296 13.8881C10.964 9.55618 13.9895 5.98256 18.2259 4.56079C18.2386 4.55692 18.2498 4.55304 18.2621 4.54882C22.23 3.23115 26.4887 4.07955 29.5841 6.50759C29.6147 6.5316 29.63 6.5436 29.6469 6.54993C29.6607 6.55512 29.675 6.5576 29.6898 6.55737C29.7078 6.55708 29.726 6.55103 29.7623 6.53891L37.4438 3.97898L37.4503 3.97687C38.5464 3.61306 39.7432 4.18184 40.1213 5.24685C40.4997 6.31397 39.9152 7.48146 38.8187 7.8502L38.8209 7.85654L4.09867 19.4941C2.5662 20.0087 1.32993 21.0744 0.618011 22.4962C-0.0935473 23.9176 -0.194216 25.5214 0.334474 27.0122C0.863163 28.503 1.95929 29.7054 3.42079 30.3974C4.88229 31.0898 6.52666 31.1905 8.06457 30.6735L13.9146 28.7105C17.9496 31.0747 22.7882 31.5843 27.2335 30.1079C27.2495 30.1023 27.2661 30.0967 27.2821 30.0917C33.4054 28.0371 37.6965 22.418 37.9609 16.1096C37.9734 15.8109 37.6826 15.5923 37.3991 15.6874L34.1657 16.7725C34.0152 16.823 33.9058 16.9538 33.8827 17.1109C33.2479 21.4424 30.2225 25.0164 25.9861 26.4375C25.9737 26.4417 25.9622 26.4459 25.9502 26.4501C21.983 27.7668 17.7265 26.9197 14.6314 24.4937C14.6008 24.4698 14.5855 24.4578 14.5687 24.4515C14.5548 24.4463 14.5406 24.4438 14.5258 24.444C14.5078 24.4443 14.4897 24.4503 14.4533 24.4624L6.76819 27.0196C6.76819 27.0196 6.76421 27.021 6.76167 27.0217C5.66591 27.3855 4.46875 26.8171 4.09107 25.7521C3.71229 24.6846 4.29711 23.5164 5.39505 23.1477L40.1137 11.5048C42.6238 10.6624 44.2048 8.37108 44.2106 5.92234V5.90121C44.2095 5.26551 44.1024 4.61996 43.8779 3.98638C43.3488 2.49558 42.2527 1.29322 40.7912 0.601179C39.9569 0.206028 39.0617 0.0045784 38.1622 0H38.0952Z" fill="url(#paint0_linear_903_305)"/>
</g>
<defs>
<linearGradient id="paint0_linear_903_305" x1="-5.67291e-07" y1="4.30556" x2="27.2965" y2="40.8751" gradientUnits="userSpaceOnUse">
<stop offset="0.135417" stop-color="#7310FF"/>
<stop offset="1" stop-color="#A15FFF"/>
</linearGradient>
</defs>
</svg>
