<svg xmlns="http://www.w3.org/2000/svg" xmlns:xlink="http://www.w3.org/1999/xlink">
  <symbol id="chevronRight" fill-rule="evenodd" viewBox="0 0 7 12">
    <path
      fill="currentColor"
      fill-rule="nonzero" d="M5.569 5.994L0 .726.687 0l6.336 5.994-6.335 6.002L0 11.27z" />
  </symbol>
  <symbol id="walletFilled" fill-rule="evenodd" viewBox="0 0 24 24">
    <path
      fill="currentColor"
      fill-rule="nonzero"
      d="M22.0049 6H15.0049C11.6912 6 9.00488 8.68629 9.00488 12C9.00488 15.3137 11.6912 18 15.0049 18H22.0049V20C22.0049 20.5523 21.5572 21 21.0049 21H3.00488C2.4526 21 2.00488 20.5523 2.00488 20V4C2.00488 3.44772 2.4526 3 3.00488 3H21.0049C21.5572 3 22.0049 3.44772 22.0049 4V6ZM15.0049 8H23.0049V16H15.0049C12.7957 16 11.0049 14.2091 11.0049 12C11.0049 9.79086 12.7957 8 15.0049 8ZM15.0049 11V13H18.0049V11H15.0049Z" />
  </symbol>
  <symbol id="closeFilled" fill-rule="evenodd" viewBox="0 0 24 24">
    <path
      d="M12.0007 10.5865L16.9504 5.63672L18.3646 7.05093L13.4149 12.0007L18.3646 16.9504L16.9504 18.3646L12.0007 13.4149L7.05093 18.3646L5.63672 16.9504L10.5865 12.0007L5.63672 7.05093L7.05093 5.63672L12.0007 10.5865Z" />
  </symbol>
  <symbol id="verticalMore" fill-rule="evenodd" viewBox="0 0 24 24">
    <path fill="currentColor"
      fill-rule="nonzero"
      d="M12 3C10.9 3 10 3.9 10 5C10 6.1 10.9 7 12 7C13.1 7 14 6.1 14 5C14 3.9 13.1 3 12 3ZM12 17C10.9 17 10 17.9 10 19C10 20.1 10.9 21 12 21C13.1 21 14 20.1 14 19C14 17.9 13.1 17 12 17ZM12 10C10.9 10 10 10.9 10 12C10 13.1 10.9 14 12 14C13.1 14 14 13.1 14 12C14 10.9 13.1 10 12 10Z" />
  </symbol>
</svg>
