<svg xmlns="http://www.w3.org/2000/svg" xmlns:xlink="http://www.w3.org/1999/xlink">
  <symbol id="chevronRight" fill-rule="evenodd" viewBox="0 0 7 12">
    <path
      fill="currentColor"
      fill-rule="nonzero" d="M5.569 5.994L0 .726.687 0l6.336 5.994-6.335 6.002L0 11.27z" />
  </symbol>
  <symbol id="walletFilled" fill-rule="evenodd" viewBox="0 0 24 24">
    <path
      fill="currentColor"
      fill-rule="nonzero"
      d="M22.0049 6H15.0049C11.6912 6 9.00488 8.68629 9.00488 12C9.00488 15.3137 11.6912 18 15.0049 18H22.0049V20C22.0049 20.5523 21.5572 21 21.0049 21H3.00488C2.4526 21 2.00488 20.5523 2.00488 20V4C2.00488 3.44772 2.4526 3 3.00488 3H21.0049C21.5572 3 22.0049 3.44772 22.0049 4V6ZM15.0049 8H23.0049V16H15.0049C12.7957 16 11.0049 14.2091 11.0049 12C11.0049 9.79086 12.7957 8 15.0049 8ZM15.0049 11V13H18.0049V11H15.0049Z" />
  </symbol>
  <symbol id="closeFilled" fill-rule="evenodd" viewBox="0 0 24 24">
    <path
      d="M12.0007 10.5865L16.9504 5.63672L18.3646 7.05093L13.4149 12.0007L18.3646 16.9504L16.9504 18.3646L12.0007 13.4149L7.05093 18.3646L5.63672 16.9504L10.5865 12.0007L5.63672 7.05093L7.05093 5.63672L12.0007 10.5865Z" />
  </symbol>
  <symbol id="verticalMore" fill-rule="evenodd" viewBox="0 0 24 24">
    <path fill="currentColor"
      fill-rule="nonzero"
      d="M12 3C10.9 3 10 3.9 10 5C10 6.1 10.9 7 12 7C13.1 7 14 6.1 14 5C14 3.9 13.1 3 12 3ZM12 17C10.9 17 10 17.9 10 19C10 20.1 10.9 21 12 21C13.1 21 14 20.1 14 19C14 17.9 13.1 17 12 17ZM12 10C10.9 10 10 10.9 10 12C10 13.1 10.9 14 12 14C13.1 14 14 13.1 14 12C14 10.9 13.1 10 12 10Z" />
  </symbol>
  <symbol id="chromeBrowser" fill-rule="evenodd" viewBox="0 0 24 24">
    <g>
      <path fill="none" d="M0 0h24v24H0z"></path>
      <path
        d="M9.827 21.763C5.35 20.771 2 16.777 2 12c0-1.822.487-3.53 1.339-5.002l4.283 7.419a4.999 4.999 0 0 0 4.976 2.548l-2.77 4.798zM12 22l4.287-7.425A4.977 4.977 0 0 0 17 12a4.978 4.978 0 0 0-1-3h5.542c.298.947.458 1.955.458 3 0 5.523-4.477 10-10 10zm2.572-8.455a2.999 2.999 0 0 1-5.17-.045l-.029-.05a3 3 0 1 1 5.225.05l-.026.045zm-9.94-8.306A9.974 9.974 0 0 1 12 2a9.996 9.996 0 0 1 8.662 5H12a5.001 5.001 0 0 0-4.599 3.035L4.632 5.239z"></path>
    </g>
  </symbol>
  <symbol id="copy" viewBox="0 0 24 24">
    <path
      fill="currentColor"
      d="M6.9998 6V3C6.9998 2.44772 7.44752 2 7.9998 2H19.9998C20.5521 2 20.9998 2.44772 20.9998 3V17C20.9998 17.5523 20.5521 18 19.9998 18H16.9998V20.9991C16.9998 21.5519 16.5499 22 15.993 22H4.00666C3.45059 22 3 21.5554 3 20.9991L3.0026 7.00087C3.0027 6.44811 3.45264 6 4.00942 6H6.9998ZM5.00242 8L5.00019 20H14.9998V8H5.00242ZM8.9998 6H16.9998V16H18.9998V4H8.9998V6Z"></path>
  </symbol>
  <symbol id="checkboxCircle" viewBox="0 0 24 24">
    <path
      fill="currentColor"
      d="M12 22C6.47715 22 2 17.5228 2 12C2 6.47715 6.47715 2 12 2C17.5228 2 22 6.47715 22 12C22 17.5228 17.5228 22 12 22ZM11.0026 16L18.0737 8.92893L16.6595 7.51472L11.0026 13.1716L8.17421 10.3431L6.75999 11.7574L11.0026 16Z"></path>
  </symbol>
</svg>
