<svg xmlns="http://www.w3.org/2000/svg" xmlns:xlink="http://www.w3.org/1999/xlink">
  <symbol id="chevronRight" fill-rule="evenodd" viewBox="0 0 7 12">
    <path
      fill="currentColor"
      fill-rule="nonzero" d="M5.569 5.994L0 .726.687 0l6.336 5.994-6.335 6.002L0 11.27z" />
  </symbol>
  <symbol id="walletFilled" fill-rule="evenodd" viewBox="0 0 24 24">
    <path
      fill="currentColor"
      fill-rule="nonzero"
      d="M22.0049 6H15.0049C11.6912 6 9.00488 8.68629 9.00488 12C9.00488 15.3137 11.6912 18 15.0049 18H22.0049V20C22.0049 20.5523 21.5572 21 21.0049 21H3.00488C2.4526 21 2.00488 20.5523 2.00488 20V4C2.00488 3.44772 2.4526 3 3.00488 3H21.0049C21.5572 3 22.0049 3.44772 22.0049 4V6ZM15.0049 8H23.0049V16H15.0049C12.7957 16 11.0049 14.2091 11.0049 12C11.0049 9.79086 12.7957 8 15.0049 8ZM15.0049 11V13H18.0049V11H15.0049Z" />
  </symbol>
  <symbol id="closeFilled" fill-rule="evenodd" viewBox="0 0 24 24">
    <path
      d="M12.0007 10.5865L16.9504 5.63672L18.3646 7.05093L13.4149 12.0007L18.3646 16.9504L16.9504 18.3646L12.0007 13.4149L7.05093 18.3646L5.63672 16.9504L10.5865 12.0007L5.63672 7.05093L7.05093 5.63672L12.0007 10.5865Z" />
  </symbol>
  <symbol id="close" viewBox="0 0 24 24">
    <path
      d="M12.0007 10.5865L16.9504 5.63672L18.3646 7.05093L13.4149 12.0007L18.3646 16.9504L16.9504 18.3646L12.0007 13.4149L7.05093 18.3646L5.63672 16.9504L10.5865 12.0007L5.63672 7.05093L7.05093 5.63672L12.0007 10.5865Z"></path>
  </symbol>
  <symbol id="verticalMore" fill-rule="evenodd" viewBox="0 0 24 24">
    <path fill="currentColor"
      fill-rule="nonzero"
      d="M12 3C10.9 3 10 3.9 10 5C10 6.1 10.9 7 12 7C13.1 7 14 6.1 14 5C14 3.9 13.1 3 12 3ZM12 17C10.9 17 10 17.9 10 19C10 20.1 10.9 21 12 21C13.1 21 14 20.1 14 19C14 17.9 13.1 17 12 17ZM12 10C10.9 10 10 10.9 10 12C10 13.1 10.9 14 12 14C13.1 14 14 13.1 14 12C14 10.9 13.1 10 12 10Z" />
  </symbol>
  <symbol id="chromeBrowser" fill-rule="evenodd" viewBox="0 0 24 24">
    <g>
      <path fill="none" d="M0 0h24v24H0z"></path>
      <path
        d="M9.827 21.763C5.35 20.771 2 16.777 2 12c0-1.822.487-3.53 1.339-5.002l4.283 7.419a4.999 4.999 0 0 0 4.976 2.548l-2.77 4.798zM12 22l4.287-7.425A4.977 4.977 0 0 0 17 12a4.978 4.978 0 0 0-1-3h5.542c.298.947.458 1.955.458 3 0 5.523-4.477 10-10 10zm2.572-8.455a2.999 2.999 0 0 1-5.17-.045l-.029-.05a3 3 0 1 1 5.225.05l-.026.045zm-9.94-8.306A9.974 9.974 0 0 1 12 2a9.996 9.996 0 0 1 8.662 5H12a5.001 5.001 0 0 0-4.599 3.035L4.632 5.239z"></path>
    </g>
  </symbol>
  <symbol id="copy" stroke="currentColor" fill="none" stroke-width="2" stroke-linecap="round"
    stroke-linejoin="round" viewBox="0 0 24 24">
    <rect x="9" y="9" width="13" height="13" rx="2" ry="2"></rect>
    <path d="M5 15H4a2 2 0 0 1-2-2V4a2 2 0 0 1 2-2h9a2 2 0 0 1 2 2v1"></path>
  </symbol>
  <symbol id="checkboxCircle" viewBox="0 0 24 24">
    <path
      fill="currentColor"
      d="M12 22C6.47715 22 2 17.5228 2 12C2 6.47715 6.47715 2 12 2C17.5228 2 22 6.47715 22 12C22 17.5228 17.5228 22 12 22ZM11.0026 16L18.0737 8.92893L16.6595 7.51472L11.0026 13.1716L8.17421 10.3431L6.75999 11.7574L11.0026 16Z"></path>
  </symbol>
  <symbol id="arrowDownS" viewBox="0 0 24 24">
    <path
      fill="currentColor"
      d="M11.9997 13.1714L16.9495 8.22168L18.3637 9.63589L11.9997 15.9999L5.63574 9.63589L7.04996 8.22168L11.9997 13.1714Z"></path>
  </symbol>
  <symbol id="arrowUpS" viewBox="0 0 24 24">
    <path
      d="M11.9997 10.8284L7.04996 15.7782L5.63574 14.364L11.9997 8L18.3637 14.364L16.9495 15.7782L11.9997 10.8284Z"></path>
  </symbol>
  <symbol id="add" viewBox="0 0 24 24">
    <path
      fill="currentColor" d="M11 11V5H13V11H19V13H13V19H11V13H5V11H11Z"></path>
  </symbol>
  <symbol id="subtract" viewBox="0 0 24 24">
    <path fill="currentColor" d="M5 11V13H19V11H5Z"></path>
  </symbol>
  <symbol id="mobileWallet" viewBox="0 0 385 236">
    <g clip-path="url(#mobileWallet__path)">
      <path
        d="M78.6501 46.0001c62.6499-61.31 164.2199-61.31 226.8699 0l7.54 7.38c.743.7206 1.334 1.5832 1.738 2.5366.404.9534.611 1.9781.611 3.0134 0 1.0353-.207 2.06-.611 3.0134-.404.9534-.995 1.816-1.738 2.5366l-25.79 25.25c-.761.735-1.777 1.1458-2.835 1.1458s-2.074-.4108-2.835-1.1458l-10.38-10.16c-43.7-42.77-114.57-42.77-158.27 0l-11.11 10.88c-.762.7356-1.78 1.1468-2.8399 1.1468-1.0595 0-2.0776-.4112-2.8401-1.1468l-25.7899-25.25c-.7434-.7206-1.3344-1.5832-1.7379-2.5366-.4036-.9534-.6116-1.9781-.6116-3.0134 0-1.0353.208-2.06.6116-3.0134.4035-.9534.9945-1.816 1.7379-2.5366l8.28-8.1Zm280.2099 52.21 23 22.4599c.742.722 1.332 1.586 1.735 2.54s.611 1.979.611 3.015-.208 2.061-.611 3.015c-.403.954-.993 1.818-1.735 2.54L278.31 233.06c-1.52 1.472-3.554 2.296-5.67 2.296s-4.15-.824-5.67-2.296l-73.47-71.9c-.186-.186-.406-.333-.649-.434-.243-.101-.503-.152-.766-.152s-.523.051-.766.152-.463.248-.649.434l-73.46 71.9c-1.522 1.473-3.557 2.297-5.675 2.297s-4.153-.824-5.675-2.297L2.35005 131.75c-.74331-.721-1.3343-1.583-1.737886-2.537-.403588-.953-.61155365-1.978-.61155365-3.013s.20796565-2.06.61155365-3.013c.403586-.954.994576-1.816 1.737886-2.537L25.3501 98.1901c1.5178-1.4771 3.5521-2.3035 5.67-2.3035 2.1178 0 4.1521.8264 5.67 2.3035L110.16 170.08c.186.186.406.334.649.434.243.101.503.153.766.153s.523-.052.766-.153c.243-.1.463-.248.649-.434l73.46-71.8899c1.52-1.4777 3.556-2.3044 5.675-2.3044 2.12 0 4.156.8267 5.675 2.3044l73.46 71.8899c.186.188.407.336.651.438.244.101.505.154.769.154s.525-.053.769-.154c.244-.102.465-.25.651-.438l73.46-71.8899c1.518-1.4771 3.552-2.3035 5.67-2.3035s4.152.8264 5.67 2.3035l-.04.02Z"
        fill="#3396FF" />
    </g>
    <defs>
      <clipPath id="mobileWallet__path">
        <path fill="#fff" d="M0 0h384.17v235.35H0z" />
      </clipPath>
    </defs>
  </symbol>
  <symbol id="mobileWalletCircle" viewBox="0 0 400 400">
    <clipPath id="mobileWalletCircle__path">
      <path d="m0 0h400v400h-400z" />
    </clipPath>
    <g clip-path="url(#mobileWalletCircle__path)">
      <circle cx="200" cy="200" fill="#3396ff" r="199.5" stroke="#66b1ff" />
      <path
        d="m122.519 148.965c42.791-41.729 112.171-41.729 154.962 0l5.15 5.022c2.14 2.086 2.14 5.469 0 7.555l-17.617 17.18c-1.07 1.043-2.804 1.043-3.874 0l-7.087-6.911c-29.853-29.111-78.253-29.111-108.106 0l-7.59 7.401c-1.07 1.043-2.804 1.043-3.874 0l-17.617-17.18c-2.14-2.086-2.14-5.469 0-7.555zm191.397 35.529 15.679 15.29c2.14 2.086 2.14 5.469 0 7.555l-70.7 68.944c-2.139 2.087-5.608 2.087-7.748 0l-50.178-48.931c-.535-.522-1.402-.522-1.937 0l-50.178 48.931c-2.139 2.087-5.608 2.087-7.748 0l-70.7015-68.945c-2.1396-2.086-2.1396-5.469 0-7.555l15.6795-15.29c2.1396-2.086 5.6085-2.086 7.7481 0l50.1789 48.932c.535.522 1.402.522 1.937 0l50.177-48.932c2.139-2.087 5.608-2.087 7.748 0l50.179 48.932c.535.522 1.402.522 1.937 0l50.179-48.931c2.139-2.087 5.608-2.087 7.748 0z"
        fill="#fff" />
    </g>
  </symbol>
  <symbol id="restart" viewBox="0 0 24 24">
    <path
      d="M18.5374 19.5674C16.7844 21.0831 14.4993 22 12 22C6.47715 22 2 17.5228 2 12C2 6.47715 6.47715 2 12 2C17.5228 2 22 6.47715 22 12C22 14.1361 21.3302 16.1158 20.1892 17.7406L17 12H20C20 7.58172 16.4183 4 12 4C7.58172 4 4 7.58172 4 12C4 16.4183 7.58172 20 12 20C14.1502 20 16.1022 19.1517 17.5398 17.7716L18.5374 19.5674Z"></path>
  </symbol>
  <symbol id="arrowLeftSLine" viewBox="0 0 24 24">
    <path
      d="M10.8284 12.0007L15.7782 16.9504L14.364 18.3646L8 12.0007L14.364 5.63672L15.7782 7.05093L10.8284 12.0007Z"></path>
  </symbol>
  <symbol id="arrowRightLine" viewBox="0 0 24 24">
    <path
      d="M16.1716 10.9999L10.8076 5.63589L12.2218 4.22168L20 11.9999L12.2218 19.778L10.8076 18.3638L16.1716 12.9999H4V10.9999H16.1716Z"></path>
  </symbol>
  <symbol id="timeLine" viewBox="0 0 24 24">
    <path
      d="M12 22C6.47715 22 2 17.5228 2 12C2 6.47715 6.47715 2 12 2C17.5228 2 22 6.47715 22 12C22 17.5228 17.5228 22 12 22ZM12 20C16.4183 20 20 16.4183 20 12C20 7.58172 16.4183 4 12 4C7.58172 4 4 7.58172 4 12C4 16.4183 7.58172 20 12 20ZM13 12H17V14H11V7H13V12Z"></path>
  </symbol>
  <symbol id="jaggedCheck" viewBox="0 0 24 24">
    <path
      fill="currentColor"
      d="M20.5 10.25C20.5 8.82 19.62 7.58 18.31 6.91C18.77 5.52 18.51 4.01 17.5 3C16.49 1.99 14.98 1.73 13.59 2.19C12.93 0.88 11.68 0 10.25 0C8.82 0 7.58 0.88 6.92 2.19C5.52 1.73 4.01 1.99 3 3C1.99 4.01 1.74 5.52 2.2 6.91C0.89 7.58 0 8.82 0 10.25C0 11.68 0.89 12.92 2.2 13.59C1.74 14.98 1.99 16.49 3 17.5C4.01 18.51 5.52 18.76 6.91 18.31C7.58 19.62 8.82 20.5 10.25 20.5C11.68 20.5 12.93 19.62 13.59 18.31C14.98 18.76 16.49 18.51 17.5 17.5C18.51 16.49 18.77 14.98 18.31 13.59C19.62 12.92 20.5 11.68 20.5 10.25ZM8.79 14.45L5.05 10.71L6.46 9.29L8.72 11.55L13.52 6.32L14.99 7.68L8.79 14.45Z" />
  </symbol>
  <symbol id="priceTagLine" viewBox="0 0 24 24">
    <path
      d="M10.9042 2.1001L20.8037 3.51431L22.2179 13.4138L13.0255 22.6062C12.635 22.9967 12.0019 22.9967 11.6113 22.6062L1.71184 12.7067C1.32131 12.3162 1.32131 11.683 1.71184 11.2925L10.9042 2.1001ZM11.6113 4.22142L3.83316 11.9996L12.3184 20.4849L20.0966 12.7067L19.036 5.28208L11.6113 4.22142ZM13.7327 10.5854C12.9516 9.80433 12.9516 8.538 13.7327 7.75695C14.5137 6.9759 15.78 6.9759 16.5611 7.75695C17.3421 8.538 17.3421 9.80433 16.5611 10.5854C15.78 11.3664 14.5137 11.3664 13.7327 10.5854Z"></path>
  </symbol>
  <symbol id="sendLine" viewBox="0 0 24 24">
    <path
      d="M21.7264 2.95706L16.2732 22.0433C16.1222 22.5718 15.7976 22.5958 15.5561 22.1127L10.9998 13.0002L1.92266 9.36931C1.41298 9.16544 1.41929 8.86034 1.9567 8.6812L21.0429 2.31913C21.5714 2.14297 21.8745 2.43878 21.7264 2.95706ZM19.0351 5.0966L6.81197 9.17097L12.4486 11.4256L15.4893 17.507L19.0351 5.0966Z"></path>
  </symbol>
  <symbol id="fireLine" viewBox="0 0 24 24">
    <path
      d="M12 23C16.1421 23 19.5 19.6421 19.5 15.5C19.5 14.6345 19.2697 13.8032 19 13.0296C17.3333 14.6765 16.0667 15.5 15.2 15.5C19.1954 8.5 17 5.5 11 1.5C11.5 6.49951 8.20403 8.77375 6.86179 10.0366C5.40786 11.4045 4.5 13.3462 4.5 15.5C4.5 19.6421 7.85786 23 12 23ZM12.7094 5.23498C15.9511 7.98528 15.9666 10.1223 13.463 14.5086C12.702 15.8419 13.6648 17.5 15.2 17.5C15.8884 17.5 16.5841 17.2992 17.3189 16.9051C16.6979 19.262 14.5519 21 12 21C8.96243 21 6.5 18.5376 6.5 15.5C6.5 13.9608 7.13279 12.5276 8.23225 11.4932C8.35826 11.3747 8.99749 10.8081 9.02477 10.7836C9.44862 10.4021 9.7978 10.0663 10.1429 9.69677C11.3733 8.37932 12.2571 6.91631 12.7094 5.23498Z"></path>
  </symbol>
  <symbol id="uploadLine" viewBox="0 0 24 24">
    <path
      d="M4 19H20V12H22V20C22 20.5523 21.5523 21 21 21H3C2.44772 21 2 20.5523 2 20V12H4V19ZM13 9V16H11V9H6L12 3L18 9H13Z"></path>
  </symbol>
  <symbol id="coinsLine" viewBox="0 0 24 24">
    <path fill="currentColor"
      d="M14.0049 2.00293C18.4232 2.00293 22.0049 5.58465 22.0049 10.0029C22.0049 13.2475 20.0733 16.041 17.2973 17.2962C16.0422 20.0719 13.249 22.0029 10.0049 22.0029C5.5866 22.0029 2.00488 18.4212 2.00488 14.0029C2.00488 10.7588 3.9359 7.96566 6.71122 6.71024C7.96681 3.9345 10.7603 2.00293 14.0049 2.00293ZM10.0049 8.00293C6.69117 8.00293 4.00488 10.6892 4.00488 14.0029C4.00488 17.3166 6.69117 20.0029 10.0049 20.0029C13.3186 20.0029 16.0049 17.3166 16.0049 14.0029C16.0049 10.6892 13.3186 8.00293 10.0049 8.00293ZM11.0049 9.00293V10.0029H13.0049V12.0029H9.00488C8.72874 12.0029 8.50488 12.2268 8.50488 12.5029C8.50488 12.7484 8.68176 12.9525 8.91501 12.9949L9.00488 13.0029H11.0049C12.3856 13.0029 13.5049 14.1222 13.5049 15.5029C13.5049 16.8836 12.3856 18.0029 11.0049 18.0029V19.0029H9.00488V18.0029H7.00488V16.0029H11.0049C11.281 16.0029 11.5049 15.7791 11.5049 15.5029C11.5049 15.2575 11.328 15.0533 11.0948 15.011L11.0049 15.0029H9.00488C7.62417 15.0029 6.50488 13.8836 6.50488 12.5029C6.50488 11.1222 7.62417 10.0029 9.00488 10.0029V9.00293H11.0049ZM14.0049 4.00293C12.2214 4.00293 10.6196 4.78109 9.52064 6.01642C9.68133 6.00776 9.84254 6.00293 10.0049 6.00293C14.4232 6.00293 18.0049 9.58465 18.0049 14.0029C18.0049 14.1656 18 14.3272 17.9905 14.4874C19.2265 13.3887 20.0049 11.7867 20.0049 10.0029C20.0049 6.68922 17.3186 4.00293 14.0049 4.00293Z"></path>
  </symbol>
  <symbol id="shoppingBagLine" viewBox="0 0 24 24">
    <path
      d="M7.00488 7.99951V5.99951C7.00488 3.23809 9.24346 0.999512 12.0049 0.999512C14.7663 0.999512 17.0049 3.23809 17.0049 5.99951V7.99951H20.0049C20.5572 7.99951 21.0049 8.44723 21.0049 8.99951V20.9995C21.0049 21.5518 20.5572 21.9995 20.0049 21.9995H4.00488C3.4526 21.9995 3.00488 21.5518 3.00488 20.9995V8.99951C3.00488 8.44723 3.4526 7.99951 4.00488 7.99951H7.00488ZM7.00488 9.99951H5.00488V19.9995H19.0049V9.99951H17.0049V11.9995H15.0049V9.99951H9.00488V11.9995H7.00488V9.99951ZM9.00488 7.99951H15.0049V5.99951C15.0049 4.34266 13.6617 2.99951 12.0049 2.99951C10.348 2.99951 9.00488 4.34266 9.00488 5.99951V7.99951Z"></path>
  </symbol>
  <symbol id="informationLine" viewBox="0 0 24 24">
    <path fill="currentColor"
      d="M12 22C6.47715 22 2 17.5228 2 12C2 6.47715 6.47715 2 12 2C17.5228 2 22 6.47715 22 12C22 17.5228 17.5228 22 12 22ZM12 20C16.4183 20 20 16.4183 20 12C20 7.58172 16.4183 4 12 4C7.58172 4 4 7.58172 4 12C4 16.4183 7.58172 20 12 20ZM11 7H13V9H11V7ZM11 11H13V17H11V11Z"></path>
  </symbol>
  <symbol id="arrowDownLine" viewBox="0 0 24 24">
    <path
      d="M12.9999 16.1716L18.3638 10.8076L19.778 12.2218L11.9999 20L4.22168 12.2218L5.63589 10.8076L10.9999 16.1716V4H12.9999V16.1716Z"></path>
  </symbol>
  <symbol id="arrowUpDownLine" viewBox="0 0 24 24">
    <path
      d="M11.9498 7.94975L10.5356 9.36396L8.00079 6.828L8.00004 20H6.00004L6.00079 6.828L3.46451 9.36396L2.05029 7.94975L7.00004 3L11.9498 7.94975ZM21.9498 16.0503L17 21L12.0503 16.0503L13.4645 14.636L16.0008 17.172L16 4H18L18.0008 17.172L20.5356 14.636L21.9498 16.0503Z"></path>
  </symbol>
  <symbol id="arrowLeftRightLine" viewBox="0 0 24 24">
    <path
      d="M16.0503 12.0498L21 16.9996L16.0503 21.9493L14.636 20.5351L17.172 17.9988L4 17.9996V15.9996L17.172 15.9988L14.636 13.464L16.0503 12.0498ZM7.94975 2.0498L9.36396 3.46402L6.828 5.9988L20 5.99955V7.99955L6.828 7.9988L9.36396 10.5351L7.94975 11.9493L3 6.99955L7.94975 2.0498Z"></path>
  </symbol>
  <symbol id="settingFill" viewBox="0 0 24 24">
    <path
      d="M9.95401 2.2106C11.2876 1.93144 12.6807 1.92263 14.0449 2.20785C14.2219 3.3674 14.9048 4.43892 15.9997 5.07103C17.0945 5.70313 18.364 5.75884 19.4566 5.3323C20.3858 6.37118 21.0747 7.58203 21.4997 8.87652C20.5852 9.60958 19.9997 10.736 19.9997 11.9992C19.9997 13.2632 20.5859 14.3902 21.5013 15.1232C21.29 15.7636 21.0104 16.3922 20.6599 16.9992C20.3094 17.6063 19.9049 18.1627 19.4559 18.6659C18.3634 18.2396 17.0943 18.2955 15.9997 18.9274C14.9057 19.559 14.223 20.6294 14.0453 21.7879C12.7118 22.067 11.3187 22.0758 9.95443 21.7906C9.77748 20.6311 9.09451 19.5595 7.99967 18.9274C6.90484 18.2953 5.63539 18.2396 4.54272 18.6662C3.61357 17.6273 2.92466 16.4164 2.49964 15.1219C3.41412 14.3889 3.99968 13.2624 3.99968 11.9992C3.99968 10.7353 3.41344 9.60827 2.49805 8.87524C2.70933 8.23482 2.98894 7.60629 3.33942 6.99923C3.68991 6.39217 4.09443 5.83576 4.54341 5.33257C5.63593 5.75881 6.90507 5.703 7.99967 5.07103C9.09364 4.43942 9.7764 3.3691 9.95401 2.2106ZM11.9997 14.9992C13.6565 14.9992 14.9997 13.6561 14.9997 11.9992C14.9997 10.3424 13.6565 8.99923 11.9997 8.99923C10.3428 8.99923 8.99967 10.3424 8.99967 11.9992C8.99967 13.6561 10.3428 14.9992 11.9997 14.9992Z"></path>
  </symbol>
  <symbol id="moonLine" viewBox="0 0 24 24">
    <path
      d="M10 7C10 10.866 13.134 14 17 14C18.9584 14 20.729 13.1957 21.9995 11.8995C22 11.933 22 11.9665 22 12C22 17.5228 17.5228 22 12 22C6.47715 22 2 17.5228 2 12C2 6.47715 6.47715 2 12 2C12.0335 2 12.067 2 12.1005 2.00049C10.8043 3.27098 10 5.04157 10 7ZM4 12C4 16.4183 7.58172 20 12 20C15.0583 20 17.7158 18.2839 19.062 15.7621C18.3945 15.9187 17.7035 16 17 16C12.0294 16 8 11.9706 8 7C8 6.29648 8.08133 5.60547 8.2379 4.938C5.71611 6.28423 4 8.9417 4 12Z"></path>
  </symbol>
  <symbol id="sunLine" viewBox="0 0 24 24">
    <path
      d="M12 18C8.68629 18 6 15.3137 6 12C6 8.68629 8.68629 6 12 6C15.3137 6 18 8.68629 18 12C18 15.3137 15.3137 18 12 18ZM12 16C14.2091 16 16 14.2091 16 12C16 9.79086 14.2091 8 12 8C9.79086 8 8 9.79086 8 12C8 14.2091 9.79086 16 12 16ZM11 1H13V4H11V1ZM11 20H13V23H11V20ZM3.51472 4.92893L4.92893 3.51472L7.05025 5.63604L5.63604 7.05025L3.51472 4.92893ZM16.9497 18.364L18.364 16.9497L20.4853 19.0711L19.0711 20.4853L16.9497 18.364ZM19.0711 3.51472L20.4853 4.92893L18.364 7.05025L16.9497 5.63604L19.0711 3.51472ZM5.63604 16.9497L7.05025 18.364L4.92893 20.4853L3.51472 19.0711L5.63604 16.9497ZM23 11V13H20V11H23ZM4 11V13H1V11H4Z"></path>
  </symbol>
  <symbol id="arrowDropDown" viewBox="0 0 24 24">
    <path
      d="M12 15.0006L7.75732 10.758L9.17154 9.34375L12 12.1722L14.8284 9.34375L16.2426 10.758L12 15.0006Z"></path>
  </symbol>
  <symbol id="loaderLine" viewBox="0 0 24 24">
    <path
      d="M18.364 5.63604L16.9497 7.05025C15.683 5.7835 13.933 5 12 5C8.13401 5 5 8.13401 5 12C5 15.866 8.13401 19 12 19C15.866 19 19 15.866 19 12H21C21 16.9706 16.9706 21 12 21C7.02944 21 3 16.9706 3 12C3 7.02944 7.02944 3 12 3C14.4853 3 16.7353 4.00736 18.364 5.63604Z"></path>
  </symbol>
  <symbol id="lock" viewBox="0 0 24 24">
    <path
      fill="currentColor"
      d="M19 10H20C20.5523 10 21 10.4477 21 11V21C21 21.5523 20.5523 22 20 22H4C3.44772 22 3 21.5523 3 21V11C3 10.4477 3.44772 10 4 10H5V9C5 5.13401 8.13401 2 12 2C15.866 2 19 5.13401 19 9V10ZM17 10V9C17 6.23858 14.7614 4 12 4C9.23858 4 7 6.23858 7 9V10H17ZM11 14V18H13V14H11Z"></path>
  </symbol>
  <symbol id="bardFill" viewBox="0 0 24 24">
    <path
      d="M10.6144 17.7956 11.492 15.7854C12.2731 13.9966 13.6789 12.5726 15.4325 11.7942L17.8482 10.7219C18.6162 10.381 18.6162 9.26368 17.8482 8.92277L15.5079 7.88394C13.7092 7.08552 12.2782 5.60881 11.5105 3.75894L10.6215 1.61673C10.2916.821765 9.19319.821767 8.8633 1.61673L7.97427 3.75892C7.20657 5.60881 5.77553 7.08552 3.97685 7.88394L1.63658 8.92277C.868537 9.26368.868536 10.381 1.63658 10.7219L4.0523 11.7942C5.80589 12.5726 7.21171 13.9966 7.99275 15.7854L8.8704 17.7956C9.20776 18.5682 10.277 18.5682 10.6144 17.7956ZM19.4014 22.6899 19.6482 22.1242C20.0882 21.1156 20.8807 20.3125 21.8695 19.8732L22.6299 19.5353C23.0412 19.3526 23.0412 18.7549 22.6299 18.5722L21.9121 18.2532C20.8978 17.8026 20.0911 16.9698 19.6586 15.9269L19.4052 15.3156C19.2285 14.8896 18.6395 14.8896 18.4628 15.3156L18.2094 15.9269C17.777 16.9698 16.9703 17.8026 15.956 18.2532L15.2381 18.5722C14.8269 18.7549 14.8269 19.3526 15.2381 19.5353L15.9985 19.8732C16.9874 20.3125 17.7798 21.1156 18.2198 22.1242L18.4667 22.6899C18.6473 23.104 19.2207 23.104 19.4014 22.6899Z"></path>
  </symbol>
</svg>
