<svg xmlns="http://www.w3.org/2000/svg" xmlns:xlink="http://www.w3.org/1999/xlink">
  <symbol id="chevronRight" fill-rule="evenodd" viewBox="0 0 7 12">
    <path
      fill="currentColor"
      fill-rule="nonzero" d="M5.569 5.994L0 .726.687 0l6.336 5.994-6.335 6.002L0 11.27z" />
  </symbol>
  <symbol id="walletFilled" fill-rule="evenodd" viewBox="0 0 24 24">
    <path
      fill="currentColor"
      fill-rule="nonzero"
      d="M22.0049 6H15.0049C11.6912 6 9.00488 8.68629 9.00488 12C9.00488 15.3137 11.6912 18 15.0049 18H22.0049V20C22.0049 20.5523 21.5572 21 21.0049 21H3.00488C2.4526 21 2.00488 20.5523 2.00488 20V4C2.00488 3.44772 2.4526 3 3.00488 3H21.0049C21.5572 3 22.0049 3.44772 22.0049 4V6ZM15.0049 8H23.0049V16H15.0049C12.7957 16 11.0049 14.2091 11.0049 12C11.0049 9.79086 12.7957 8 15.0049 8ZM15.0049 11V13H18.0049V11H15.0049Z" />
  </symbol>
  <symbol id="closeFilled" fill-rule="evenodd" viewBox="0 0 24 24">
    <path
      d="M12.0007 10.5865L16.9504 5.63672L18.3646 7.05093L13.4149 12.0007L18.3646 16.9504L16.9504 18.3646L12.0007 13.4149L7.05093 18.3646L5.63672 16.9504L10.5865 12.0007L5.63672 7.05093L7.05093 5.63672L12.0007 10.5865Z" />
  </symbol>
  <symbol id="verticalMore" fill-rule="evenodd" viewBox="0 0 24 24">
    <path fill="currentColor"
      fill-rule="nonzero"
      d="M12 3C10.9 3 10 3.9 10 5C10 6.1 10.9 7 12 7C13.1 7 14 6.1 14 5C14 3.9 13.1 3 12 3ZM12 17C10.9 17 10 17.9 10 19C10 20.1 10.9 21 12 21C13.1 21 14 20.1 14 19C14 17.9 13.1 17 12 17ZM12 10C10.9 10 10 10.9 10 12C10 13.1 10.9 14 12 14C13.1 14 14 13.1 14 12C14 10.9 13.1 10 12 10Z" />
  </symbol>
  <symbol id="chromeBrowser" fill-rule="evenodd" viewBox="0 0 24 24">
    <g>
      <path fill="none" d="M0 0h24v24H0z"></path>
      <path
        d="M9.827 21.763C5.35 20.771 2 16.777 2 12c0-1.822.487-3.53 1.339-5.002l4.283 7.419a4.999 4.999 0 0 0 4.976 2.548l-2.77 4.798zM12 22l4.287-7.425A4.977 4.977 0 0 0 17 12a4.978 4.978 0 0 0-1-3h5.542c.298.947.458 1.955.458 3 0 5.523-4.477 10-10 10zm2.572-8.455a2.999 2.999 0 0 1-5.17-.045l-.029-.05a3 3 0 1 1 5.225.05l-.026.045zm-9.94-8.306A9.974 9.974 0 0 1 12 2a9.996 9.996 0 0 1 8.662 5H12a5.001 5.001 0 0 0-4.599 3.035L4.632 5.239z"></path>
    </g>
  </symbol>
  <symbol id="copy" stroke="currentColor" fill="none" stroke-width="2" stroke-linecap="round"
    stroke-linejoin="round" viewBox="0 0 24 24">
    <rect x="9" y="9" width="13" height="13" rx="2" ry="2"></rect>
    <path d="M5 15H4a2 2 0 0 1-2-2V4a2 2 0 0 1 2-2h9a2 2 0 0 1 2 2v1"></path>
  </symbol>
  <symbol id="checkboxCircle" viewBox="0 0 24 24">
    <path
      fill="currentColor"
      d="M12 22C6.47715 22 2 17.5228 2 12C2 6.47715 6.47715 2 12 2C17.5228 2 22 6.47715 22 12C22 17.5228 17.5228 22 12 22ZM11.0026 16L18.0737 8.92893L16.6595 7.51472L11.0026 13.1716L8.17421 10.3431L6.75999 11.7574L11.0026 16Z"></path>
  </symbol>
  <symbol id="arrowDownS" viewBox="0 0 24 24">
    <path
      fill="currentColor"
      d="M11.9997 13.1714L16.9495 8.22168L18.3637 9.63589L11.9997 15.9999L5.63574 9.63589L7.04996 8.22168L11.9997 13.1714Z"></path>
  </symbol>
  <symbol id="arrowUpS" viewBox="0 0 24 24">
    <path
      d="M11.9997 10.8284L7.04996 15.7782L5.63574 14.364L11.9997 8L18.3637 14.364L16.9495 15.7782L11.9997 10.8284Z"></path>
  </symbol>
  <symbol id="add" viewBox="0 0 24 24">
    <path
      fill="currentColor" d="M11 11V5H13V11H19V13H13V19H11V13H5V11H11Z"></path>
  </symbol>
  <symbol id="subtract" viewBox="0 0 24 24">
    <path fill="currentColor" d="M5 11V13H19V11H5Z"></path>
  </symbol>
  <symbol id="mobileWallet" viewBox="0 0 385 236">
    <g clip-path="url(#mobileWallet__path)">
      <path
        d="M78.6501 46.0001c62.6499-61.31 164.2199-61.31 226.8699 0l7.54 7.38c.743.7206 1.334 1.5832 1.738 2.5366.404.9534.611 1.9781.611 3.0134 0 1.0353-.207 2.06-.611 3.0134-.404.9534-.995 1.816-1.738 2.5366l-25.79 25.25c-.761.735-1.777 1.1458-2.835 1.1458s-2.074-.4108-2.835-1.1458l-10.38-10.16c-43.7-42.77-114.57-42.77-158.27 0l-11.11 10.88c-.762.7356-1.78 1.1468-2.8399 1.1468-1.0595 0-2.0776-.4112-2.8401-1.1468l-25.7899-25.25c-.7434-.7206-1.3344-1.5832-1.7379-2.5366-.4036-.9534-.6116-1.9781-.6116-3.0134 0-1.0353.208-2.06.6116-3.0134.4035-.9534.9945-1.816 1.7379-2.5366l8.28-8.1Zm280.2099 52.21 23 22.4599c.742.722 1.332 1.586 1.735 2.54s.611 1.979.611 3.015-.208 2.061-.611 3.015c-.403.954-.993 1.818-1.735 2.54L278.31 233.06c-1.52 1.472-3.554 2.296-5.67 2.296s-4.15-.824-5.67-2.296l-73.47-71.9c-.186-.186-.406-.333-.649-.434-.243-.101-.503-.152-.766-.152s-.523.051-.766.152-.463.248-.649.434l-73.46 71.9c-1.522 1.473-3.557 2.297-5.675 2.297s-4.153-.824-5.675-2.297L2.35005 131.75c-.74331-.721-1.3343-1.583-1.737886-2.537-.403588-.953-.61155365-1.978-.61155365-3.013s.20796565-2.06.61155365-3.013c.403586-.954.994576-1.816 1.737886-2.537L25.3501 98.1901c1.5178-1.4771 3.5521-2.3035 5.67-2.3035 2.1178 0 4.1521.8264 5.67 2.3035L110.16 170.08c.186.186.406.334.649.434.243.101.503.153.766.153s.523-.052.766-.153c.243-.1.463-.248.649-.434l73.46-71.8899c1.52-1.4777 3.556-2.3044 5.675-2.3044 2.12 0 4.156.8267 5.675 2.3044l73.46 71.8899c.186.188.407.336.651.438.244.101.505.154.769.154s.525-.053.769-.154c.244-.102.465-.25.651-.438l73.46-71.8899c1.518-1.4771 3.552-2.3035 5.67-2.3035s4.152.8264 5.67 2.3035l-.04.02Z"
        fill="#3396FF" />
    </g>
    <defs>
      <clipPath id="mobileWallet__path">
        <path fill="#fff" d="M0 0h384.17v235.35H0z" />
      </clipPath>
    </defs>
  </symbol>
  <symbol id="mobileWalletCircle" viewBox="0 0 400 400">
    <clipPath id="mobileWalletCircle__path">
      <path d="m0 0h400v400h-400z" />
    </clipPath>
    <g clip-path="url(#mobileWalletCircle__path)">
      <circle cx="200" cy="200" fill="#3396ff" r="199.5" stroke="#66b1ff" />
      <path
        d="m122.519 148.965c42.791-41.729 112.171-41.729 154.962 0l5.15 5.022c2.14 2.086 2.14 5.469 0 7.555l-17.617 17.18c-1.07 1.043-2.804 1.043-3.874 0l-7.087-6.911c-29.853-29.111-78.253-29.111-108.106 0l-7.59 7.401c-1.07 1.043-2.804 1.043-3.874 0l-17.617-17.18c-2.14-2.086-2.14-5.469 0-7.555zm191.397 35.529 15.679 15.29c2.14 2.086 2.14 5.469 0 7.555l-70.7 68.944c-2.139 2.087-5.608 2.087-7.748 0l-50.178-48.931c-.535-.522-1.402-.522-1.937 0l-50.178 48.931c-2.139 2.087-5.608 2.087-7.748 0l-70.7015-68.945c-2.1396-2.086-2.1396-5.469 0-7.555l15.6795-15.29c2.1396-2.086 5.6085-2.086 7.7481 0l50.1789 48.932c.535.522 1.402.522 1.937 0l50.177-48.932c2.139-2.087 5.608-2.087 7.748 0l50.179 48.932c.535.522 1.402.522 1.937 0l50.179-48.931c2.139-2.087 5.608-2.087 7.748 0z"
        fill="#fff" />
    </g>
  </symbol>
  <symbol id="restart" viewBox="0 0 24 24">
    <path
      d="M18.5374 19.5674C16.7844 21.0831 14.4993 22 12 22C6.47715 22 2 17.5228 2 12C2 6.47715 6.47715 2 12 2C17.5228 2 22 6.47715 22 12C22 14.1361 21.3302 16.1158 20.1892 17.7406L17 12H20C20 7.58172 16.4183 4 12 4C7.58172 4 4 7.58172 4 12C4 16.4183 7.58172 20 12 20C14.1502 20 16.1022 19.1517 17.5398 17.7716L18.5374 19.5674Z"></path>
  </symbol>
  <symbol id="arrowLeftSLine" viewBox="0 0 24 24">
    <path
      d="M10.8284 12.0007L15.7782 16.9504L14.364 18.3646L8 12.0007L14.364 5.63672L15.7782 7.05093L10.8284 12.0007Z"></path>
  </symbol>
  <symbol id="arrowRightLine" viewBox="0 0 24 24">
    <path
      d="M16.1716 10.9999L10.8076 5.63589L12.2218 4.22168L20 11.9999L12.2218 19.778L10.8076 18.3638L16.1716 12.9999H4V10.9999H16.1716Z"></path>
  </symbol>
  <symbol id="timeLine" viewBox="0 0 24 24">
    <path
      d="M12 22C6.47715 22 2 17.5228 2 12C2 6.47715 6.47715 2 12 2C17.5228 2 22 6.47715 22 12C22 17.5228 17.5228 22 12 22ZM12 20C16.4183 20 20 16.4183 20 12C20 7.58172 16.4183 4 12 4C7.58172 4 4 7.58172 4 12C4 16.4183 7.58172 20 12 20ZM13 12H17V14H11V7H13V12Z"></path>
  </symbol>
  <symbol id="arrowDownLine" viewBox="0 0 24 24">
    <path
      d="M12.9999 16.1716L18.3638 10.8076L19.778 12.2218L11.9999 20L4.22168 12.2218L5.63589 10.8076L10.9999 16.1716V4H12.9999V16.1716Z"></path>
  </symbol>
  <symbol id="arrowUpDownLine" viewBox="0 0 24 24">
    <path
      d="M11.9498 7.94975L10.5356 9.36396L8.00079 6.828L8.00004 20H6.00004L6.00079 6.828L3.46451 9.36396L2.05029 7.94975L7.00004 3L11.9498 7.94975ZM21.9498 16.0503L17 21L12.0503 16.0503L13.4645 14.636L16.0008 17.172L16 4H18L18.0008 17.172L20.5356 14.636L21.9498 16.0503Z"></path>
  </symbol>
  <symbol id="arrowLeftRightLine" viewBox="0 0 24 24">
    <path
      d="M16.0503 12.0498L21 16.9996L16.0503 21.9493L14.636 20.5351L17.172 17.9988L4 17.9996V15.9996L17.172 15.9988L14.636 13.464L16.0503 12.0498ZM7.94975 2.0498L9.36396 3.46402L6.828 5.9988L20 5.99955V7.99955L6.828 7.9988L9.36396 10.5351L7.94975 11.9493L3 6.99955L7.94975 2.0498Z"></path>
  </symbol>
  <symbol id="settingFill" viewBox="0 0 24 24">
    <path
      d="M9.95401 2.2106C11.2876 1.93144 12.6807 1.92263 14.0449 2.20785C14.2219 3.3674 14.9048 4.43892 15.9997 5.07103C17.0945 5.70313 18.364 5.75884 19.4566 5.3323C20.3858 6.37118 21.0747 7.58203 21.4997 8.87652C20.5852 9.60958 19.9997 10.736 19.9997 11.9992C19.9997 13.2632 20.5859 14.3902 21.5013 15.1232C21.29 15.7636 21.0104 16.3922 20.6599 16.9992C20.3094 17.6063 19.9049 18.1627 19.4559 18.6659C18.3634 18.2396 17.0943 18.2955 15.9997 18.9274C14.9057 19.559 14.223 20.6294 14.0453 21.7879C12.7118 22.067 11.3187 22.0758 9.95443 21.7906C9.77748 20.6311 9.09451 19.5595 7.99967 18.9274C6.90484 18.2953 5.63539 18.2396 4.54272 18.6662C3.61357 17.6273 2.92466 16.4164 2.49964 15.1219C3.41412 14.3889 3.99968 13.2624 3.99968 11.9992C3.99968 10.7353 3.41344 9.60827 2.49805 8.87524C2.70933 8.23482 2.98894 7.60629 3.33942 6.99923C3.68991 6.39217 4.09443 5.83576 4.54341 5.33257C5.63593 5.75881 6.90507 5.703 7.99967 5.07103C9.09364 4.43942 9.7764 3.3691 9.95401 2.2106ZM11.9997 14.9992C13.6565 14.9992 14.9997 13.6561 14.9997 11.9992C14.9997 10.3424 13.6565 8.99923 11.9997 8.99923C10.3428 8.99923 8.99967 10.3424 8.99967 11.9992C8.99967 13.6561 10.3428 14.9992 11.9997 14.9992Z"></path>
  </symbol>
</svg>
