<svg viewBox="0 0 116 83" fill="none" xmlns="http://www.w3.org/2000/svg">
  <g filter="url(#LogoA)">
    <path fill-rule="evenodd" clip-rule="evenodd"
      d="M99.11 0c-1.686.01-3.376.293-5.016.854-.017.006-.033.01-.05.017l-15.22 5.255C68.326-.203 55.736-1.566 44.171 2.386l-.126.043C28.115 7.93 16.952 22.974 16.264 39.864l-.068 1.659 10.58-3.653.098-.686c1.65-11.598 9.522-21.166 20.543-24.973.033-.01.062-.02.095-.032 10.413-3.559 21.595-1.216 29.665 5.415l20.238-6.94a5.484 5.484 0 0 1 6.966 3.395 5.49 5.49 0 0 1-3.389 6.97l.006.016-90.335 31.159a15.718 15.718 0 0 0-9.055 8.038A15.74 15.74 0 0 0 .87 72.323a15.715 15.715 0 0 0 8.03 9.064c3.802 1.853 8.08 2.123 12.081.739l15.22-5.256c10.497 6.33 23.086 7.694 34.651 3.742l.126-.044c15.931-5.501 27.095-20.546 27.783-37.436l.067-1.658-10.579 3.654-.098.685c-1.652 11.597-9.523 21.166-20.545 24.971l-.093.034c-10.411 3.556-21.588 1.217-29.657-5.409l-20.248 6.934a5.483 5.483 0 0 1-6.965-3.394 5.492 5.492 0 0 1 3.393-6.973l90.325-31.173c6.531-2.255 10.644-8.39 10.659-14.946V15.8a15.808 15.808 0 0 0-.865-5.127 15.725 15.725 0 0 0-8.031-9.063A15.77 15.77 0 0 0 99.284 0h-.174Z"
      fill="url(#LogoB)"></path>
  </g>
  <defs>
    <linearGradient id="LogoB" x1="50.719" y1="-34.416" x2="-12.746" y2="62.129"
      gradientUnits="userSpaceOnUse">
      <stop stop-color="#E37CF3"></stop>
      <stop offset="1" stop-color="#8013A1"></stop>
    </linearGradient>
    <filter id="LogoA" x="0" y="0" width="115.02" height="87" filterUnits="userSpaceOnUse"
      color-interpolation-filters="sRGB">
      <feFlood flood-opacity="0" result="BackgroundImageFix"></feFlood>
      <feBlend in="SourceGraphic" in2="BackgroundImageFix" result="shape"></feBlend>
      <feColorMatrix in="SourceAlpha" values="0 0 0 0 0 0 0 0 0 0 0 0 0 0 0 0 0 0 127 0"
        result="hardAlpha"></feColorMatrix>
      <feOffset dy="4"></feOffset>
      <feGaussianBlur stdDeviation="2"></feGaussianBlur>
      <feComposite in2="hardAlpha" operator="arithmetic" k2="-1" k3="1"></feComposite>
      <feColorMatrix values="0 0 0 0 0.829167 0 0 0 0 0.829167 0 0 0 0 0.829167 0 0 0 0.25 0"></feColorMatrix>
      <feBlend in2="shape" result="effect1_innerShadow_126_999"></feBlend>
    </filter>
  </defs>
</svg>
