<svg width="52" height="52" viewBox="0 0 52 52" fill="none" xmlns="http://www.w3.org/2000/svg">
<g id="Group 203">
<path id="Rectangle 1" d="M0 21.06C0 13.5339 0 9.77078 1.51105 6.91691C2.73045 4.61386 4.61386 2.73045 6.91691 1.51105C9.77078 0 13.5339 0 21.06 0H30.94C38.4661 0 42.2292 0 45.0831 1.51105C47.3861 2.73045 49.2696 4.61386 50.489 6.91691C52 9.77078 52 13.5339 52 21.06V30.94C52 38.4661 52 42.2292 50.489 45.0831C49.2696 47.3861 47.3861 49.2696 45.0831 50.489C42.2292 52 38.4661 52 30.94 52H21.06C13.5339 52 9.77078 52 6.91691 50.489C4.61386 49.2696 2.73045 47.3861 1.51105 45.0831C0 42.2292 0 38.4661 0 30.94V21.06Z" fill="url(#paint0_linear_19_2870)"/>
<g id="Group 2">
<rect id="Rectangle 129" x="8.66663" y="10.111" width="36.1111" height="14.4444" rx="2.6" fill="url(#paint1_linear_19_2870)"/>
<rect id="Rectangle 130" x="8.66663" y="27.4444" width="26" height="14.4444" rx="2.6" fill="url(#paint2_linear_19_2870)"/>
<rect id="Rectangle 131" x="37.5555" y="27.4444" width="7.22222" height="14.4444" rx="2.6" fill="url(#paint3_linear_19_2870)"/>
</g>
</g>
<defs>
<linearGradient id="paint0_linear_19_2870" x1="-6.67241e-07" y1="7.22222" x2="47.6667" y2="52" gradientUnits="userSpaceOnUse">
<stop offset="0.135417" stop-color="#7310FF"/>
<stop offset="1" stop-color="#A15FFF"/>
</linearGradient>
<linearGradient id="paint1_linear_19_2870" x1="44.7777" y1="23.1797" x2="9.60192" y2="7.95063" gradientUnits="userSpaceOnUse">
<stop stop-color="white"/>
<stop offset="1" stop-color="#EAF4FF"/>
</linearGradient>
<linearGradient id="paint2_linear_19_2870" x1="34.6666" y1="40.5132" x2="7.25627" y2="31.9689" gradientUnits="userSpaceOnUse">
<stop stop-color="white"/>
<stop offset="1" stop-color="#EAF4FF"/>
</linearGradient>
<linearGradient id="paint3_linear_19_2870" x1="44.7778" y1="40.5132" x2="36.4861" y2="39.7952" gradientUnits="userSpaceOnUse">
<stop stop-color="white"/>
<stop offset="1" stop-color="#EAF4FF"/>
</linearGradient>
</defs>
</svg>
